<mxfile host="app.diagrams.net" modified="2024-02-04T16:01:21.633Z" agent="Mozilla/5.0 (Macintosh; Intel Mac OS X 10_15_7) AppleWebKit/537.36 (KHTML, like Gecko) Chrome/121.0.0.0 Safari/537.36" etag="ZY0JE3IF57jAFl4S6TIv" version="23.1.1" type="github">
  <diagram id="C5RBs43oDa-KdzZeNtuy" name="Page-1">
    <mxGraphModel dx="1306" dy="910" grid="1" gridSize="10" guides="1" tooltips="1" connect="1" arrows="1" fold="1" page="1" pageScale="1" pageWidth="827" pageHeight="1169" math="0" shadow="0">
      <root>
        <mxCell id="WIyWlLk6GJQsqaUBKTNV-0" />
        <mxCell id="WIyWlLk6GJQsqaUBKTNV-1" parent="WIyWlLk6GJQsqaUBKTNV-0" />
        <mxCell id="YwtdNWmRTTKCq9kBnkPt-0" value="User" style="swimlane;fontStyle=1;align=center;verticalAlign=top;childLayout=stackLayout;horizontal=1;startSize=26;horizontalStack=0;resizeParent=1;resizeParentMax=0;resizeLast=0;collapsible=1;marginBottom=0;whiteSpace=wrap;html=1;fontSize=16;" vertex="1" parent="WIyWlLk6GJQsqaUBKTNV-1">
          <mxGeometry y="120" width="280" height="164" as="geometry" />
        </mxCell>
        <mxCell id="YwtdNWmRTTKCq9kBnkPt-5" value="+ first_name: String" style="text;strokeColor=none;fillColor=none;align=left;verticalAlign=top;spacingLeft=4;spacingRight=4;overflow=hidden;rotatable=0;points=[[0,0.5],[1,0.5]];portConstraint=eastwest;whiteSpace=wrap;html=1;fontSize=16;" vertex="1" parent="YwtdNWmRTTKCq9kBnkPt-0">
          <mxGeometry y="26" width="280" height="26" as="geometry" />
        </mxCell>
        <mxCell id="YwtdNWmRTTKCq9kBnkPt-6" value="+ middle_name: String" style="text;strokeColor=none;fillColor=none;align=left;verticalAlign=top;spacingLeft=4;spacingRight=4;overflow=hidden;rotatable=0;points=[[0,0.5],[1,0.5]];portConstraint=eastwest;whiteSpace=wrap;html=1;fontSize=16;" vertex="1" parent="YwtdNWmRTTKCq9kBnkPt-0">
          <mxGeometry y="52" width="280" height="26" as="geometry" />
        </mxCell>
        <mxCell id="YwtdNWmRTTKCq9kBnkPt-8" value="+ last_name: String" style="text;strokeColor=none;fillColor=none;align=left;verticalAlign=top;spacingLeft=4;spacingRight=4;overflow=hidden;rotatable=0;points=[[0,0.5],[1,0.5]];portConstraint=eastwest;whiteSpace=wrap;html=1;fontSize=16;" vertex="1" parent="YwtdNWmRTTKCq9kBnkPt-0">
          <mxGeometry y="78" width="280" height="26" as="geometry" />
        </mxCell>
        <mxCell id="YwtdNWmRTTKCq9kBnkPt-26" value="+ social_security_number: String" style="text;strokeColor=none;fillColor=none;align=left;verticalAlign=top;spacingLeft=4;spacingRight=4;overflow=hidden;rotatable=0;points=[[0,0.5],[1,0.5]];portConstraint=eastwest;whiteSpace=wrap;html=1;fontSize=16;" vertex="1" parent="YwtdNWmRTTKCq9kBnkPt-0">
          <mxGeometry y="104" width="280" height="26" as="geometry" />
        </mxCell>
        <mxCell id="YwtdNWmRTTKCq9kBnkPt-2" value="" style="line;strokeWidth=1;fillColor=none;align=left;verticalAlign=middle;spacingTop=-1;spacingLeft=3;spacingRight=3;rotatable=0;labelPosition=right;points=[];portConstraint=eastwest;strokeColor=inherit;fontSize=16;" vertex="1" parent="YwtdNWmRTTKCq9kBnkPt-0">
          <mxGeometry y="130" width="280" height="8" as="geometry" />
        </mxCell>
        <mxCell id="YwtdNWmRTTKCq9kBnkPt-3" value="+ getMiddleInitial(String): String" style="text;strokeColor=none;fillColor=none;align=left;verticalAlign=top;spacingLeft=4;spacingRight=4;overflow=hidden;rotatable=0;points=[[0,0.5],[1,0.5]];portConstraint=eastwest;whiteSpace=wrap;html=1;fontSize=16;" vertex="1" parent="YwtdNWmRTTKCq9kBnkPt-0">
          <mxGeometry y="138" width="280" height="26" as="geometry" />
        </mxCell>
        <mxCell id="YwtdNWmRTTKCq9kBnkPt-9" value="Spouse" style="swimlane;fontStyle=1;align=center;verticalAlign=top;childLayout=stackLayout;horizontal=1;startSize=26;horizontalStack=0;resizeParent=1;resizeParentMax=0;resizeLast=0;collapsible=1;marginBottom=0;whiteSpace=wrap;html=1;fontSize=16;" vertex="1" parent="WIyWlLk6GJQsqaUBKTNV-1">
          <mxGeometry x="320" y="120" width="260" height="164" as="geometry" />
        </mxCell>
        <mxCell id="YwtdNWmRTTKCq9kBnkPt-13" value="+ first_name: String" style="text;strokeColor=none;fillColor=none;align=left;verticalAlign=top;spacingLeft=4;spacingRight=4;overflow=hidden;rotatable=0;points=[[0,0.5],[1,0.5]];portConstraint=eastwest;whiteSpace=wrap;html=1;fontSize=16;" vertex="1" parent="YwtdNWmRTTKCq9kBnkPt-9">
          <mxGeometry y="26" width="260" height="26" as="geometry" />
        </mxCell>
        <mxCell id="YwtdNWmRTTKCq9kBnkPt-14" value="+ middle_name: String" style="text;strokeColor=none;fillColor=none;align=left;verticalAlign=top;spacingLeft=4;spacingRight=4;overflow=hidden;rotatable=0;points=[[0,0.5],[1,0.5]];portConstraint=eastwest;whiteSpace=wrap;html=1;fontSize=16;" vertex="1" parent="YwtdNWmRTTKCq9kBnkPt-9">
          <mxGeometry y="52" width="260" height="26" as="geometry" />
        </mxCell>
        <mxCell id="YwtdNWmRTTKCq9kBnkPt-15" value="+ last_name: String" style="text;strokeColor=none;fillColor=none;align=left;verticalAlign=top;spacingLeft=4;spacingRight=4;overflow=hidden;rotatable=0;points=[[0,0.5],[1,0.5]];portConstraint=eastwest;whiteSpace=wrap;html=1;fontSize=16;" vertex="1" parent="YwtdNWmRTTKCq9kBnkPt-9">
          <mxGeometry y="78" width="260" height="26" as="geometry" />
        </mxCell>
        <mxCell id="YwtdNWmRTTKCq9kBnkPt-27" value="+ social_security_number: String" style="text;strokeColor=none;fillColor=none;align=left;verticalAlign=top;spacingLeft=4;spacingRight=4;overflow=hidden;rotatable=0;points=[[0,0.5],[1,0.5]];portConstraint=eastwest;whiteSpace=wrap;html=1;fontSize=16;" vertex="1" parent="YwtdNWmRTTKCq9kBnkPt-9">
          <mxGeometry y="104" width="260" height="26" as="geometry" />
        </mxCell>
        <mxCell id="YwtdNWmRTTKCq9kBnkPt-11" value="" style="line;strokeWidth=1;fillColor=none;align=left;verticalAlign=middle;spacingTop=-1;spacingLeft=3;spacingRight=3;rotatable=0;labelPosition=right;points=[];portConstraint=eastwest;strokeColor=inherit;fontSize=16;" vertex="1" parent="YwtdNWmRTTKCq9kBnkPt-9">
          <mxGeometry y="130" width="260" height="8" as="geometry" />
        </mxCell>
        <mxCell id="YwtdNWmRTTKCq9kBnkPt-12" value="+ getMiddleInitial(String): String" style="text;strokeColor=none;fillColor=none;align=left;verticalAlign=top;spacingLeft=4;spacingRight=4;overflow=hidden;rotatable=0;points=[[0,0.5],[1,0.5]];portConstraint=eastwest;whiteSpace=wrap;html=1;fontSize=16;" vertex="1" parent="YwtdNWmRTTKCq9kBnkPt-9">
          <mxGeometry y="138" width="260" height="26" as="geometry" />
        </mxCell>
        <mxCell id="YwtdNWmRTTKCq9kBnkPt-16" value="Address" style="swimlane;fontStyle=1;align=center;verticalAlign=top;childLayout=stackLayout;horizontal=1;startSize=26;horizontalStack=0;resizeParent=1;resizeParentMax=0;resizeLast=0;collapsible=1;marginBottom=0;whiteSpace=wrap;html=1;fontSize=16;" vertex="1" parent="WIyWlLk6GJQsqaUBKTNV-1">
          <mxGeometry y="320" width="228" height="242" as="geometry" />
        </mxCell>
        <mxCell id="YwtdNWmRTTKCq9kBnkPt-24" value="+ mailing_address: String" style="text;strokeColor=none;fillColor=none;align=left;verticalAlign=top;spacingLeft=4;spacingRight=4;overflow=hidden;rotatable=0;points=[[0,0.5],[1,0.5]];portConstraint=eastwest;whiteSpace=wrap;html=1;fontSize=16;" vertex="1" parent="YwtdNWmRTTKCq9kBnkPt-16">
          <mxGeometry y="26" width="228" height="26" as="geometry" />
        </mxCell>
        <mxCell id="YwtdNWmRTTKCq9kBnkPt-25" value="+ apartment_number: String" style="text;strokeColor=none;fillColor=none;align=left;verticalAlign=top;spacingLeft=4;spacingRight=4;overflow=hidden;rotatable=0;points=[[0,0.5],[1,0.5]];portConstraint=eastwest;whiteSpace=wrap;html=1;fontSize=16;" vertex="1" parent="YwtdNWmRTTKCq9kBnkPt-16">
          <mxGeometry y="52" width="228" height="26" as="geometry" />
        </mxCell>
        <mxCell id="YwtdNWmRTTKCq9kBnkPt-20" value="+ city: String" style="text;strokeColor=none;fillColor=none;align=left;verticalAlign=top;spacingLeft=4;spacingRight=4;overflow=hidden;rotatable=0;points=[[0,0.5],[1,0.5]];portConstraint=eastwest;whiteSpace=wrap;html=1;fontSize=16;" vertex="1" parent="YwtdNWmRTTKCq9kBnkPt-16">
          <mxGeometry y="78" width="228" height="26" as="geometry" />
        </mxCell>
        <mxCell id="YwtdNWmRTTKCq9kBnkPt-17" value="+ state: String" style="text;strokeColor=none;fillColor=none;align=left;verticalAlign=top;spacingLeft=4;spacingRight=4;overflow=hidden;rotatable=0;points=[[0,0.5],[1,0.5]];portConstraint=eastwest;whiteSpace=wrap;html=1;fontSize=16;" vertex="1" parent="YwtdNWmRTTKCq9kBnkPt-16">
          <mxGeometry y="104" width="228" height="26" as="geometry" />
        </mxCell>
        <mxCell id="YwtdNWmRTTKCq9kBnkPt-21" value="+ zip_code: Integer" style="text;strokeColor=none;fillColor=none;align=left;verticalAlign=top;spacingLeft=4;spacingRight=4;overflow=hidden;rotatable=0;points=[[0,0.5],[1,0.5]];portConstraint=eastwest;whiteSpace=wrap;html=1;fontSize=16;" vertex="1" parent="YwtdNWmRTTKCq9kBnkPt-16">
          <mxGeometry y="130" width="228" height="26" as="geometry" />
        </mxCell>
        <mxCell id="YwtdNWmRTTKCq9kBnkPt-22" value="+ country: String" style="text;strokeColor=none;fillColor=none;align=left;verticalAlign=top;spacingLeft=4;spacingRight=4;overflow=hidden;rotatable=0;points=[[0,0.5],[1,0.5]];portConstraint=eastwest;whiteSpace=wrap;html=1;fontSize=16;" vertex="1" parent="YwtdNWmRTTKCq9kBnkPt-16">
          <mxGeometry y="156" width="228" height="26" as="geometry" />
        </mxCell>
        <mxCell id="YwtdNWmRTTKCq9kBnkPt-23" value="+ county: String" style="text;strokeColor=none;fillColor=none;align=left;verticalAlign=top;spacingLeft=4;spacingRight=4;overflow=hidden;rotatable=0;points=[[0,0.5],[1,0.5]];portConstraint=eastwest;whiteSpace=wrap;html=1;fontSize=16;" vertex="1" parent="YwtdNWmRTTKCq9kBnkPt-16">
          <mxGeometry y="182" width="228" height="26" as="geometry" />
        </mxCell>
        <mxCell id="YwtdNWmRTTKCq9kBnkPt-18" value="" style="line;strokeWidth=1;fillColor=none;align=left;verticalAlign=middle;spacingTop=-1;spacingLeft=3;spacingRight=3;rotatable=0;labelPosition=right;points=[];portConstraint=eastwest;strokeColor=inherit;fontSize=16;" vertex="1" parent="YwtdNWmRTTKCq9kBnkPt-16">
          <mxGeometry y="208" width="228" height="8" as="geometry" />
        </mxCell>
        <mxCell id="YwtdNWmRTTKCq9kBnkPt-19" value="+ getCountry(String): String" style="text;strokeColor=none;fillColor=none;align=left;verticalAlign=top;spacingLeft=4;spacingRight=4;overflow=hidden;rotatable=0;points=[[0,0.5],[1,0.5]];portConstraint=eastwest;whiteSpace=wrap;html=1;fontSize=16;" vertex="1" parent="YwtdNWmRTTKCq9kBnkPt-16">
          <mxGeometry y="216" width="228" height="26" as="geometry" />
        </mxCell>
        <mxCell id="YwtdNWmRTTKCq9kBnkPt-28" value="FormD400" style="swimlane;fontStyle=1;align=center;verticalAlign=top;childLayout=stackLayout;horizontal=1;startSize=26;horizontalStack=0;resizeParent=1;resizeParentMax=0;resizeLast=0;collapsible=1;marginBottom=0;whiteSpace=wrap;html=1;fontSize=16;" vertex="1" parent="WIyWlLk6GJQsqaUBKTNV-1">
          <mxGeometry x="240" y="320" width="520" height="544" as="geometry" />
        </mxCell>
        <mxCell id="YwtdNWmRTTKCq9kBnkPt-35" value="+ out_of_country: Boolean" style="text;strokeColor=none;fillColor=none;align=left;verticalAlign=top;spacingLeft=4;spacingRight=4;overflow=hidden;rotatable=0;points=[[0,0.5],[1,0.5]];portConstraint=eastwest;whiteSpace=wrap;html=1;fontSize=16;" vertex="1" parent="YwtdNWmRTTKCq9kBnkPt-28">
          <mxGeometry y="26" width="520" height="28" as="geometry" />
        </mxCell>
        <mxCell id="YwtdNWmRTTKCq9kBnkPt-34" value="+ deceased_taxpayer:&amp;nbsp;DeceasedTaxpayerInformation" style="text;strokeColor=none;fillColor=none;align=left;verticalAlign=top;spacingLeft=4;spacingRight=4;overflow=hidden;rotatable=0;points=[[0,0.5],[1,0.5]];portConstraint=eastwest;whiteSpace=wrap;html=1;fontSize=16;" vertex="1" parent="YwtdNWmRTTKCq9kBnkPt-28">
          <mxGeometry y="54" width="520" height="28" as="geometry" />
        </mxCell>
        <mxCell id="YwtdNWmRTTKCq9kBnkPt-46" value="+ residency_status: ResidencyStatus" style="text;strokeColor=none;fillColor=none;align=left;verticalAlign=top;spacingLeft=4;spacingRight=4;overflow=hidden;rotatable=0;points=[[0,0.5],[1,0.5]];portConstraint=eastwest;whiteSpace=wrap;html=1;fontSize=16;" vertex="1" parent="YwtdNWmRTTKCq9kBnkPt-28">
          <mxGeometry y="82" width="520" height="28" as="geometry" />
        </mxCell>
        <mxCell id="YwtdNWmRTTKCq9kBnkPt-53" value="+ federal_extention: Boolean" style="text;strokeColor=none;fillColor=none;align=left;verticalAlign=top;spacingLeft=4;spacingRight=4;overflow=hidden;rotatable=0;points=[[0,0.5],[1,0.5]];portConstraint=eastwest;whiteSpace=wrap;html=1;fontSize=16;" vertex="1" parent="YwtdNWmRTTKCq9kBnkPt-28">
          <mxGeometry y="110" width="520" height="26" as="geometry" />
        </mxCell>
        <mxCell id="YwtdNWmRTTKCq9kBnkPt-29" value="+ filing_status: FilingStatus" style="text;strokeColor=none;fillColor=none;align=left;verticalAlign=top;spacingLeft=4;spacingRight=4;overflow=hidden;rotatable=0;points=[[0,0.5],[1,0.5]];portConstraint=eastwest;whiteSpace=wrap;html=1;fontSize=16;" vertex="1" parent="YwtdNWmRTTKCq9kBnkPt-28">
          <mxGeometry y="136" width="520" height="26" as="geometry" />
        </mxCell>
        <mxCell id="YwtdNWmRTTKCq9kBnkPt-32" value="+ federal_agi: Integer" style="text;strokeColor=none;fillColor=none;align=left;verticalAlign=top;spacingLeft=4;spacingRight=4;overflow=hidden;rotatable=0;points=[[0,0.5],[1,0.5]];portConstraint=eastwest;whiteSpace=wrap;html=1;fontSize=16;" vertex="1" parent="YwtdNWmRTTKCq9kBnkPt-28">
          <mxGeometry y="162" width="520" height="28" as="geometry" />
        </mxCell>
        <mxCell id="YwtdNWmRTTKCq9kBnkPt-33" value="+ additions_to_fagi: Integer" style="text;strokeColor=none;fillColor=none;align=left;verticalAlign=top;spacingLeft=4;spacingRight=4;overflow=hidden;rotatable=0;points=[[0,0.5],[1,0.5]];portConstraint=eastwest;whiteSpace=wrap;html=1;fontSize=16;" vertex="1" parent="YwtdNWmRTTKCq9kBnkPt-28">
          <mxGeometry y="190" width="520" height="28" as="geometry" />
        </mxCell>
        <mxCell id="YwtdNWmRTTKCq9kBnkPt-64" value="+ line_8_add: Integer" style="text;strokeColor=none;fillColor=none;align=left;verticalAlign=top;spacingLeft=4;spacingRight=4;overflow=hidden;rotatable=0;points=[[0,0.5],[1,0.5]];portConstraint=eastwest;whiteSpace=wrap;html=1;fontSize=16;" vertex="1" parent="YwtdNWmRTTKCq9kBnkPt-28">
          <mxGeometry y="218" width="520" height="28" as="geometry" />
        </mxCell>
        <mxCell id="YwtdNWmRTTKCq9kBnkPt-65" value="+ deductions_from_fagi: Integer" style="text;strokeColor=none;fillColor=none;align=left;verticalAlign=top;spacingLeft=4;spacingRight=4;overflow=hidden;rotatable=0;points=[[0,0.5],[1,0.5]];portConstraint=eastwest;whiteSpace=wrap;html=1;fontSize=16;" vertex="1" parent="YwtdNWmRTTKCq9kBnkPt-28">
          <mxGeometry y="246" width="520" height="28" as="geometry" />
        </mxCell>
        <mxCell id="YwtdNWmRTTKCq9kBnkPt-68" value="+ child_deduction: ChildDeduction" style="text;strokeColor=none;fillColor=none;align=left;verticalAlign=top;spacingLeft=4;spacingRight=4;overflow=hidden;rotatable=0;points=[[0,0.5],[1,0.5]];portConstraint=eastwest;whiteSpace=wrap;html=1;fontSize=16;" vertex="1" parent="YwtdNWmRTTKCq9kBnkPt-28">
          <mxGeometry y="274" width="520" height="28" as="geometry" />
        </mxCell>
        <mxCell id="YwtdNWmRTTKCq9kBnkPt-80" value="+ nc_deduction_type: NCDeduction" style="text;strokeColor=none;fillColor=none;align=left;verticalAlign=top;spacingLeft=4;spacingRight=4;overflow=hidden;rotatable=0;points=[[0,0.5],[1,0.5]];portConstraint=eastwest;whiteSpace=wrap;html=1;fontSize=16;" vertex="1" parent="YwtdNWmRTTKCq9kBnkPt-28">
          <mxGeometry y="302" width="520" height="28" as="geometry" />
        </mxCell>
        <mxCell id="YwtdNWmRTTKCq9kBnkPt-87" value="+ nc_deduction_amount: Integer" style="text;strokeColor=none;fillColor=none;align=left;verticalAlign=top;spacingLeft=4;spacingRight=4;overflow=hidden;rotatable=0;points=[[0,0.5],[1,0.5]];portConstraint=eastwest;whiteSpace=wrap;html=1;fontSize=16;" vertex="1" parent="YwtdNWmRTTKCq9kBnkPt-28">
          <mxGeometry y="330" width="520" height="28" as="geometry" />
        </mxCell>
        <mxCell id="YwtdNWmRTTKCq9kBnkPt-88" value="+ line_12_a_add:&amp;nbsp;Integer" style="text;strokeColor=none;fillColor=none;align=left;verticalAlign=top;spacingLeft=4;spacingRight=4;overflow=hidden;rotatable=0;points=[[0,0.5],[1,0.5]];portConstraint=eastwest;whiteSpace=wrap;html=1;fontSize=16;" vertex="1" parent="YwtdNWmRTTKCq9kBnkPt-28">
          <mxGeometry y="358" width="520" height="28" as="geometry" />
        </mxCell>
        <mxCell id="YwtdNWmRTTKCq9kBnkPt-89" value="+ line_12_b_sustract:&amp;nbsp;Integer" style="text;strokeColor=none;fillColor=none;align=left;verticalAlign=top;spacingLeft=4;spacingRight=4;overflow=hidden;rotatable=0;points=[[0,0.5],[1,0.5]];portConstraint=eastwest;whiteSpace=wrap;html=1;fontSize=16;" vertex="1" parent="YwtdNWmRTTKCq9kBnkPt-28">
          <mxGeometry y="386" width="520" height="28" as="geometry" />
        </mxCell>
        <mxCell id="YwtdNWmRTTKCq9kBnkPt-30" value="" style="line;strokeWidth=1;fillColor=none;align=left;verticalAlign=middle;spacingTop=-1;spacingLeft=3;spacingRight=3;rotatable=0;labelPosition=right;points=[];portConstraint=eastwest;strokeColor=inherit;fontSize=16;" vertex="1" parent="YwtdNWmRTTKCq9kBnkPt-28">
          <mxGeometry y="414" width="520" height="2" as="geometry" />
        </mxCell>
        <mxCell id="YwtdNWmRTTKCq9kBnkPt-90" value="+ getDeceasedTaxpayerInformation(): DeceasedTaxpayerInformation" style="text;strokeColor=none;fillColor=none;align=left;verticalAlign=top;spacingLeft=4;spacingRight=4;overflow=hidden;rotatable=0;points=[[0,0.5],[1,0.5]];portConstraint=eastwest;whiteSpace=wrap;html=1;fontSize=16;" vertex="1" parent="YwtdNWmRTTKCq9kBnkPt-28">
          <mxGeometry y="416" width="520" height="36" as="geometry" />
        </mxCell>
        <mxCell id="YwtdNWmRTTKCq9kBnkPt-91" value="+ getResidencyStatus(): ResidencyStatus" style="text;strokeColor=none;fillColor=none;align=left;verticalAlign=top;spacingLeft=4;spacingRight=4;overflow=hidden;rotatable=0;points=[[0,0.5],[1,0.5]];portConstraint=eastwest;whiteSpace=wrap;html=1;fontSize=16;" vertex="1" parent="YwtdNWmRTTKCq9kBnkPt-28">
          <mxGeometry y="452" width="520" height="28" as="geometry" />
        </mxCell>
        <mxCell id="YwtdNWmRTTKCq9kBnkPt-70" value="+ getFilingStatus(): FilingStatus" style="text;strokeColor=none;fillColor=none;align=left;verticalAlign=top;spacingLeft=4;spacingRight=4;overflow=hidden;rotatable=0;points=[[0,0.5],[1,0.5]];portConstraint=eastwest;whiteSpace=wrap;html=1;fontSize=16;" vertex="1" parent="YwtdNWmRTTKCq9kBnkPt-28">
          <mxGeometry y="480" width="520" height="28" as="geometry" />
        </mxCell>
        <mxCell id="YwtdNWmRTTKCq9kBnkPt-69" value="+ getChildDeduction(Integer): Integer" style="text;strokeColor=none;fillColor=none;align=left;verticalAlign=top;spacingLeft=4;spacingRight=4;overflow=hidden;rotatable=0;points=[[0,0.5],[1,0.5]];portConstraint=eastwest;whiteSpace=wrap;html=1;fontSize=16;" vertex="1" parent="YwtdNWmRTTKCq9kBnkPt-28">
          <mxGeometry y="508" width="520" height="36" as="geometry" />
        </mxCell>
        <mxCell id="YwtdNWmRTTKCq9kBnkPt-36" value="DeceasedTaxpayerInformation" style="swimlane;fontStyle=1;align=center;verticalAlign=top;childLayout=stackLayout;horizontal=1;startSize=26;horizontalStack=0;resizeParent=1;resizeParentMax=0;resizeLast=0;collapsible=1;marginBottom=0;whiteSpace=wrap;html=1;fontSize=16;" vertex="1" parent="WIyWlLk6GJQsqaUBKTNV-1">
          <mxGeometry x="800" y="320" width="270" height="104" as="geometry" />
        </mxCell>
        <mxCell id="YwtdNWmRTTKCq9kBnkPt-37" value="+ is_representative: boolean" style="text;strokeColor=none;fillColor=none;align=left;verticalAlign=top;spacingLeft=4;spacingRight=4;overflow=hidden;rotatable=0;points=[[0,0.5],[1,0.5]];portConstraint=eastwest;whiteSpace=wrap;html=1;fontSize=16;" vertex="1" parent="YwtdNWmRTTKCq9kBnkPt-36">
          <mxGeometry y="26" width="270" height="26" as="geometry" />
        </mxCell>
        <mxCell id="YwtdNWmRTTKCq9kBnkPt-40" value="+ taxpayer_deceased: Date" style="text;strokeColor=none;fillColor=none;align=left;verticalAlign=top;spacingLeft=4;spacingRight=4;overflow=hidden;rotatable=0;points=[[0,0.5],[1,0.5]];portConstraint=eastwest;whiteSpace=wrap;html=1;fontSize=16;" vertex="1" parent="YwtdNWmRTTKCq9kBnkPt-36">
          <mxGeometry y="52" width="270" height="26" as="geometry" />
        </mxCell>
        <mxCell id="YwtdNWmRTTKCq9kBnkPt-41" value="+ spouse_deceased: Date" style="text;strokeColor=none;fillColor=none;align=left;verticalAlign=top;spacingLeft=4;spacingRight=4;overflow=hidden;rotatable=0;points=[[0,0.5],[1,0.5]];portConstraint=eastwest;whiteSpace=wrap;html=1;fontSize=16;" vertex="1" parent="YwtdNWmRTTKCq9kBnkPt-36">
          <mxGeometry y="78" width="270" height="26" as="geometry" />
        </mxCell>
        <mxCell id="YwtdNWmRTTKCq9kBnkPt-42" value="ResidencyStatus" style="swimlane;fontStyle=1;align=center;verticalAlign=top;childLayout=stackLayout;horizontal=1;startSize=26;horizontalStack=0;resizeParent=1;resizeParentMax=0;resizeLast=0;collapsible=1;marginBottom=0;whiteSpace=wrap;html=1;fontSize=16;" vertex="1" parent="WIyWlLk6GJQsqaUBKTNV-1">
          <mxGeometry x="800" y="440" width="240" height="78" as="geometry" />
        </mxCell>
        <mxCell id="YwtdNWmRTTKCq9kBnkPt-43" value="+ is_resident: Boolean" style="text;strokeColor=none;fillColor=none;align=left;verticalAlign=top;spacingLeft=4;spacingRight=4;overflow=hidden;rotatable=0;points=[[0,0.5],[1,0.5]];portConstraint=eastwest;whiteSpace=wrap;html=1;fontSize=16;" vertex="1" parent="YwtdNWmRTTKCq9kBnkPt-42">
          <mxGeometry y="26" width="240" height="26" as="geometry" />
        </mxCell>
        <mxCell id="YwtdNWmRTTKCq9kBnkPt-52" value="+ is_spouse_resident: Boolean" style="text;strokeColor=none;fillColor=none;align=left;verticalAlign=top;spacingLeft=4;spacingRight=4;overflow=hidden;rotatable=0;points=[[0,0.5],[1,0.5]];portConstraint=eastwest;whiteSpace=wrap;html=1;fontSize=16;" vertex="1" parent="YwtdNWmRTTKCq9kBnkPt-42">
          <mxGeometry y="52" width="240" height="26" as="geometry" />
        </mxCell>
        <mxCell id="YwtdNWmRTTKCq9kBnkPt-47" value="VeteranInformation" style="swimlane;fontStyle=1;align=center;verticalAlign=top;childLayout=stackLayout;horizontal=1;startSize=26;horizontalStack=0;resizeParent=1;resizeParentMax=0;resizeLast=0;collapsible=1;marginBottom=0;whiteSpace=wrap;html=1;fontSize=16;" vertex="1" parent="WIyWlLk6GJQsqaUBKTNV-1">
          <mxGeometry x="800" y="540" width="240" height="78" as="geometry" />
        </mxCell>
        <mxCell id="YwtdNWmRTTKCq9kBnkPt-48" value="+ is_veteran: Boolean" style="text;strokeColor=none;fillColor=none;align=left;verticalAlign=top;spacingLeft=4;spacingRight=4;overflow=hidden;rotatable=0;points=[[0,0.5],[1,0.5]];portConstraint=eastwest;whiteSpace=wrap;html=1;fontSize=16;" vertex="1" parent="YwtdNWmRTTKCq9kBnkPt-47">
          <mxGeometry y="26" width="240" height="26" as="geometry" />
        </mxCell>
        <mxCell id="YwtdNWmRTTKCq9kBnkPt-51" value="+ is_spouse_veteran: Boolean" style="text;strokeColor=none;fillColor=none;align=left;verticalAlign=top;spacingLeft=4;spacingRight=4;overflow=hidden;rotatable=0;points=[[0,0.5],[1,0.5]];portConstraint=eastwest;whiteSpace=wrap;html=1;fontSize=16;" vertex="1" parent="YwtdNWmRTTKCq9kBnkPt-47">
          <mxGeometry y="52" width="240" height="26" as="geometry" />
        </mxCell>
        <mxCell id="YwtdNWmRTTKCq9kBnkPt-56" value="«Enumeration»&lt;br style=&quot;border-color: var(--border-color); font-weight: 400;&quot;&gt;&lt;b style=&quot;border-color: var(--border-color);&quot;&gt;FilingStatus&lt;/b&gt;" style="swimlane;fontStyle=1;align=center;verticalAlign=top;childLayout=stackLayout;horizontal=1;startSize=50;horizontalStack=0;resizeParent=1;resizeParentMax=0;resizeLast=0;collapsible=1;marginBottom=0;whiteSpace=wrap;html=1;fontSize=16;" vertex="1" parent="WIyWlLk6GJQsqaUBKTNV-1">
          <mxGeometry x="800" y="640" width="240" height="180" as="geometry" />
        </mxCell>
        <mxCell id="YwtdNWmRTTKCq9kBnkPt-57" value="SINGLE: String" style="text;strokeColor=none;fillColor=none;align=left;verticalAlign=top;spacingLeft=4;spacingRight=4;overflow=hidden;rotatable=0;points=[[0,0.5],[1,0.5]];portConstraint=eastwest;whiteSpace=wrap;html=1;fontSize=16;" vertex="1" parent="YwtdNWmRTTKCq9kBnkPt-56">
          <mxGeometry y="50" width="240" height="26" as="geometry" />
        </mxCell>
        <mxCell id="YwtdNWmRTTKCq9kBnkPt-61" value="MFJ: String" style="text;strokeColor=none;fillColor=none;align=left;verticalAlign=top;spacingLeft=4;spacingRight=4;overflow=hidden;rotatable=0;points=[[0,0.5],[1,0.5]];portConstraint=eastwest;whiteSpace=wrap;html=1;fontSize=16;" vertex="1" parent="YwtdNWmRTTKCq9kBnkPt-56">
          <mxGeometry y="76" width="240" height="26" as="geometry" />
        </mxCell>
        <mxCell id="YwtdNWmRTTKCq9kBnkPt-63" value="MFS: String" style="text;strokeColor=none;fillColor=none;align=left;verticalAlign=top;spacingLeft=4;spacingRight=4;overflow=hidden;rotatable=0;points=[[0,0.5],[1,0.5]];portConstraint=eastwest;whiteSpace=wrap;html=1;fontSize=16;" vertex="1" parent="YwtdNWmRTTKCq9kBnkPt-56">
          <mxGeometry y="102" width="240" height="26" as="geometry" />
        </mxCell>
        <mxCell id="YwtdNWmRTTKCq9kBnkPt-62" value="HH: String" style="text;strokeColor=none;fillColor=none;align=left;verticalAlign=top;spacingLeft=4;spacingRight=4;overflow=hidden;rotatable=0;points=[[0,0.5],[1,0.5]];portConstraint=eastwest;whiteSpace=wrap;html=1;fontSize=16;" vertex="1" parent="YwtdNWmRTTKCq9kBnkPt-56">
          <mxGeometry y="128" width="240" height="26" as="geometry" />
        </mxCell>
        <mxCell id="YwtdNWmRTTKCq9kBnkPt-60" value="QW: String" style="text;strokeColor=none;fillColor=none;align=left;verticalAlign=top;spacingLeft=4;spacingRight=4;overflow=hidden;rotatable=0;points=[[0,0.5],[1,0.5]];portConstraint=eastwest;whiteSpace=wrap;html=1;fontSize=16;" vertex="1" parent="YwtdNWmRTTKCq9kBnkPt-56">
          <mxGeometry y="154" width="240" height="26" as="geometry" />
        </mxCell>
        <mxCell id="YwtdNWmRTTKCq9kBnkPt-71" value="ChildDeduction" style="swimlane;fontStyle=1;align=center;verticalAlign=top;childLayout=stackLayout;horizontal=1;startSize=26;horizontalStack=0;resizeParent=1;resizeParentMax=0;resizeLast=0;collapsible=1;marginBottom=0;whiteSpace=wrap;html=1;fontSize=16;" vertex="1" parent="WIyWlLk6GJQsqaUBKTNV-1">
          <mxGeometry x="800" y="840" width="480" height="196" as="geometry" />
        </mxCell>
        <mxCell id="YwtdNWmRTTKCq9kBnkPt-75" value="+ agi: Integer" style="text;strokeColor=none;fillColor=none;align=left;verticalAlign=top;spacingLeft=4;spacingRight=4;overflow=hidden;rotatable=0;points=[[0,0.5],[1,0.5]];portConstraint=eastwest;whiteSpace=wrap;html=1;fontSize=16;" vertex="1" parent="YwtdNWmRTTKCq9kBnkPt-71">
          <mxGeometry y="26" width="480" height="28" as="geometry" />
        </mxCell>
        <mxCell id="YwtdNWmRTTKCq9kBnkPt-77" value="+ qualifying_children: Integer" style="text;strokeColor=none;fillColor=none;align=left;verticalAlign=top;spacingLeft=4;spacingRight=4;overflow=hidden;rotatable=0;points=[[0,0.5],[1,0.5]];portConstraint=eastwest;whiteSpace=wrap;html=1;fontSize=16;" vertex="1" parent="YwtdNWmRTTKCq9kBnkPt-71">
          <mxGeometry y="54" width="480" height="28" as="geometry" />
        </mxCell>
        <mxCell id="YwtdNWmRTTKCq9kBnkPt-76" value="+ deduction_amount: Integer" style="text;strokeColor=none;fillColor=none;align=left;verticalAlign=top;spacingLeft=4;spacingRight=4;overflow=hidden;rotatable=0;points=[[0,0.5],[1,0.5]];portConstraint=eastwest;whiteSpace=wrap;html=1;fontSize=16;" vertex="1" parent="YwtdNWmRTTKCq9kBnkPt-71">
          <mxGeometry y="82" width="480" height="28" as="geometry" />
        </mxCell>
        <mxCell id="YwtdNWmRTTKCq9kBnkPt-73" value="" style="line;strokeWidth=1;fillColor=none;align=left;verticalAlign=middle;spacingTop=-1;spacingLeft=3;spacingRight=3;rotatable=0;labelPosition=right;points=[];portConstraint=eastwest;strokeColor=inherit;fontSize=16;" vertex="1" parent="YwtdNWmRTTKCq9kBnkPt-71">
          <mxGeometry y="110" width="480" height="8" as="geometry" />
        </mxCell>
        <mxCell id="YwtdNWmRTTKCq9kBnkPt-74" value="+ isQualified(Integer): Boolean" style="text;strokeColor=none;fillColor=none;align=left;verticalAlign=top;spacingLeft=4;spacingRight=4;overflow=hidden;rotatable=0;points=[[0,0.5],[1,0.5]];portConstraint=eastwest;whiteSpace=wrap;html=1;fontSize=16;" vertex="1" parent="YwtdNWmRTTKCq9kBnkPt-71">
          <mxGeometry y="118" width="480" height="26" as="geometry" />
        </mxCell>
        <mxCell id="YwtdNWmRTTKCq9kBnkPt-79" value="+ getNumberOfQualifyingChildren(Boolean, Integer): Integer" style="text;strokeColor=none;fillColor=none;align=left;verticalAlign=top;spacingLeft=4;spacingRight=4;overflow=hidden;rotatable=0;points=[[0,0.5],[1,0.5]];portConstraint=eastwest;whiteSpace=wrap;html=1;fontSize=16;" vertex="1" parent="YwtdNWmRTTKCq9kBnkPt-71">
          <mxGeometry y="144" width="480" height="26" as="geometry" />
        </mxCell>
        <mxCell id="YwtdNWmRTTKCq9kBnkPt-78" value="+ getDeductionAmount(Integer): Integer" style="text;strokeColor=none;fillColor=none;align=left;verticalAlign=top;spacingLeft=4;spacingRight=4;overflow=hidden;rotatable=0;points=[[0,0.5],[1,0.5]];portConstraint=eastwest;whiteSpace=wrap;html=1;fontSize=16;" vertex="1" parent="YwtdNWmRTTKCq9kBnkPt-71">
          <mxGeometry y="170" width="480" height="26" as="geometry" />
        </mxCell>
        <mxCell id="YwtdNWmRTTKCq9kBnkPt-81" value="«Enumeration»&lt;br style=&quot;border-color: var(--border-color); font-weight: 400;&quot;&gt;NCDeduction" style="swimlane;fontStyle=1;align=center;verticalAlign=top;childLayout=stackLayout;horizontal=1;startSize=50;horizontalStack=0;resizeParent=1;resizeParentMax=0;resizeLast=0;collapsible=1;marginBottom=0;whiteSpace=wrap;html=1;fontSize=16;" vertex="1" parent="WIyWlLk6GJQsqaUBKTNV-1">
          <mxGeometry x="1100" y="320" width="240" height="102" as="geometry" />
        </mxCell>
        <mxCell id="YwtdNWmRTTKCq9kBnkPt-82" value="STANDARD: String" style="text;strokeColor=none;fillColor=none;align=left;verticalAlign=top;spacingLeft=4;spacingRight=4;overflow=hidden;rotatable=0;points=[[0,0.5],[1,0.5]];portConstraint=eastwest;whiteSpace=wrap;html=1;fontSize=16;" vertex="1" parent="YwtdNWmRTTKCq9kBnkPt-81">
          <mxGeometry y="50" width="240" height="26" as="geometry" />
        </mxCell>
        <mxCell id="YwtdNWmRTTKCq9kBnkPt-83" value="ITEMIZED: String" style="text;strokeColor=none;fillColor=none;align=left;verticalAlign=top;spacingLeft=4;spacingRight=4;overflow=hidden;rotatable=0;points=[[0,0.5],[1,0.5]];portConstraint=eastwest;whiteSpace=wrap;html=1;fontSize=16;" vertex="1" parent="YwtdNWmRTTKCq9kBnkPt-81">
          <mxGeometry y="76" width="240" height="26" as="geometry" />
        </mxCell>
      </root>
    </mxGraphModel>
  </diagram>
</mxfile>
